<?xml version="1.0" encoding="UTF-8" standalone="no"?>
<!DOCTYPE svg PUBLIC "-//W3C//DTD SVG 1.1//EN" "http://www.w3.org/Graphics/SVG/1.1/DTD/svg11.dtd">
<svg width="100%" height="100%" viewBox="0 0 2369 2363" version="1.1" xmlns="http://www.w3.org/2000/svg" xmlns:xlink="http://www.w3.org/1999/xlink" xml:space="preserve" xmlns:serif="http://www.serif.com/" style="fill-rule:evenodd;clip-rule:evenodd;stroke-linecap:round;stroke-linejoin:round;stroke-miterlimit:1.5;">
    <g transform="matrix(1,0,0,1,-4898.88,-0.312202)">
        <g transform="matrix(1,0,0,1,105.912,0.312202)">
            <rect id="画板3" x="4792.97" y="0" width="2368.32" height="2362.2" style="fill:none;"/>
            <g id="画板31" serif:id="画板3">
                <g>
                    <g transform="matrix(4.39741,0,0,4.39741,4675.93,-117.033)">
                        <circle cx="295.276" cy="295.276" r="263.264" style="fill:rgb(196,139,68);stroke:white;stroke-width:1.42px;"/>
                    </g>
                    <g transform="matrix(3.16414,0,0,3.2742,5040.09,214.625)">
                        <circle cx="295.276" cy="295.276" r="263.264" style="fill:rgb(68,114,196);stroke:white;stroke-width:2.59px;"/>
                    </g>
                    <g transform="matrix(0.999405,0,0,0.999405,4985.86,192.889)">
                        <g id="Bioinformation">
                            <g transform="matrix(0.426742,-0.904373,0.904373,0.426742,-510.151,451.446)">
                                <text x="101.026px" y="628.131px" style="font-family:'ArialMT', 'Arial', sans-serif;font-size:150px;fill:white;">B</text>
                            </g>
                            <g transform="matrix(0.558076,-0.82979,0.82979,0.558076,-312.167,360.729)">
                                <text x="182.583px" y="473.439px" style="font-family:'ArialMT', 'Arial', sans-serif;font-size:150px;fill:white;">I</text>
                            </g>
                            <g transform="matrix(0.683298,-0.73014,0.73014,0.683298,-196.9,302.481)">
                                <text x="250.227px" y="378.211px" style="font-family:'ArialMT', 'Arial', sans-serif;font-size:150px;fill:white;">O</text>
                            </g>
                            <g transform="matrix(0.791019,-0.611792,0.611792,0.791019,-68.5894,288.247)">
                                <text x="387.627px" y="244.521px" style="font-family:'ArialMT', 'Arial', sans-serif;font-size:150px;fill:white;">I</text>
                            </g>
                            <g transform="matrix(0.876248,-0.481861,0.481861,0.876248,-25.0523,253.937)">
                                <text x="481.858px" y="175.742px" style="font-family:'ArialMT', 'Arial', sans-serif;font-size:150px;fill:white;">N</text>
                            </g>
                            <g transform="matrix(0.950567,-0.310519,0.310519,0.950567,2.69107,205.221)">
                                <text x="645.905px" y="94.158px" style="font-family:'ArialMT', 'Arial', sans-serif;font-size:150px;fill:white;">F</text>
                            </g>
                            <g transform="matrix(0.991595,-0.129383,0.129383,0.991595,0.60819,104.708)">
                                <text x="806.192px" y="47.673px" style="font-family:'ArialMT', 'Arial', sans-serif;font-size:150px;fill:white;">O</text>
                            </g>
                            <g transform="matrix(0.997626,0.0688691,-0.0688691,0.997626,4.44934,-68.5841)">
                                <text x="996.904px" y="30.237px" style="font-family:'ArialMT', 'Arial', sans-serif;font-size:150px;fill:white;">R</text>
                            </g>
                            <g transform="matrix(0.965216,0.261453,-0.261453,0.965216,53.8053,-306.666)">
                                <text x="1179.43px" y="48.881px" style="font-family:'ArialMT', 'Arial', sans-serif;font-size:150px;fill:white;">M</text>
                            </g>
                            <g transform="matrix(0.895244,0.445577,-0.445577,0.895244,192.261,-598.918)">
                                <text x="1369.87px" y="109.429px" style="font-family:'ArialMT', 'Arial', sans-serif;font-size:150px;fill:white;">A</text>
                            </g>
                            <g transform="matrix(0.808521,0.588467,-0.588467,0.808521,400.384,-855.142)">
                                <text x="1514.24px" y="187.674px" style="font-family:'ArialMT', 'Arial', sans-serif;font-size:150px;fill:white;">T</text>
                            </g>
                            <g transform="matrix(0.713656,0.700497,-0.700497,0.713656,674.956,-1068.41)">
                                <text x="1644.33px" y="291.382px" style="font-family:'ArialMT', 'Arial', sans-serif;font-size:150px;fill:white;">I</text>
                            </g>
                            <g transform="matrix(0.592996,0.805206,-0.805206,0.592996,1004.41,-1236.68)">
                                <text x="1725.51px" y="375.211px" style="font-family:'ArialMT', 'Arial', sans-serif;font-size:150px;fill:white;">O</text>
                            </g>
                            <g transform="matrix(0.425536,0.904942,-0.904942,0.425536,1536.23,-1351.86)">
                                <text x="1832.89px" y="534.065px" style="font-family:'ArialMT', 'Arial', sans-serif;font-size:150px;fill:white;">N</text>
                            </g>
                        </g>
                    </g>
                    <g transform="matrix(0.95032,0,0,0.95032,4877.36,84.3936)">
                        <g transform="matrix(-0.00436053,0.99999,-0.99999,-0.00436053,1156.7,1097.22)">
                            <text x="32.131px" y="1124.44px" style="font-family:'Arial-BoldMT', 'Arial', sans-serif;font-weight:700;font-size:150px;fill:white;">·</text>
                        </g>
                        <g transform="matrix(0.127429,0.991848,-0.991848,0.127429,1269.75,1055.65)">
                            <text x="34.899px" y="1249.48px" style="font-family:'ArialMT', 'Arial', sans-serif;font-size:150px;fill:white;">S</text>
                        </g>
                        <g transform="matrix(0.280906,0.959735,-0.959735,0.280906,1410.22,962.119)">
                            <text x="63.066px" y="1422.13px" style="font-family:'ArialMT', 'Arial', sans-serif;font-size:150px;fill:white;">Y</text>
                        </g>
                        <g transform="matrix(0.427431,0.904048,-0.904048,0.427431,1503.49,802.824)">
                            <text x="117.944px" y="1588.37px" style="font-family:'ArialMT', 'Arial', sans-serif;font-size:150px;fill:white;">S</text>
                        </g>
                        <g transform="matrix(0.560254,0.828321,-0.828321,0.560254,1531.68,602.677)">
                            <text x="198.228px" y="1743.9px" style="font-family:'ArialMT', 'Arial', sans-serif;font-size:150px;fill:white;">T</text>
                        </g>
                        <g transform="matrix(0.679892,0.733312,-0.733312,0.679892,1472.63,384.447)">
                            <text x="295.963px" y="1878.99px" style="font-family:'ArialMT', 'Arial', sans-serif;font-size:150px;fill:white;">E</text>
                        </g>
                        <g transform="matrix(0.790562,0.612383,-0.612383,0.790562,1314.86,163.346)">
                            <text x="418.625px" y="2003.95px" style="font-family:'ArialMT', 'Arial', sans-serif;font-size:150px;fill:white;">M</text>
                        </g>
                        <g transform="matrix(0.881307,0.472544,-0.472544,0.881307,1071.03,-22.8914)">
                            <text x="581.085px" y="2120.57px" style="font-family:'ArialMT', 'Arial', sans-serif;font-size:150px;fill:white;">A</text>
                        </g>
                        <g transform="matrix(0.939736,0.3419,-0.3419,0.939736,793.888,-116.619)">
                            <text x="727.757px" y="2193.71px" style="font-family:'ArialMT', 'Arial', sans-serif;font-size:150px;fill:white;">T</text>
                        </g>
                        <g transform="matrix(0.975542,0.219814,-0.219814,0.975542,515.094,-139.941)">
                            <text x="886.395px" y="2244.69px" style="font-family:'ArialMT', 'Arial', sans-serif;font-size:150px;fill:white;">I</text>
                        </g>
                        <g transform="matrix(0.996191,0.0872013,-0.0872013,0.996191,201.552,-78.6227)">
                            <text x="1000.68px" y="2267.63px" style="font-family:'ArialMT', 'Arial', sans-serif;font-size:150px;fill:white;">C</text>
                        </g>
                        <g transform="matrix(0.997473,-0.0710396,0.0710396,0.997473,-158.804,89.8445)">
                            <text x="1183.71px" y="2277.53px" style="font-family:'ArialMT', 'Arial', sans-serif;font-size:150px;fill:white;">&amp;</text>
                        </g>
                        <g transform="matrix(0.974148,-0.22591,0.22591,0.974148,-475.338,365.191)">
                            <text x="1357.97px" y="2259.5px" style="font-family:'ArialMT', 'Arial', sans-serif;font-size:150px;fill:white;">E</text>
                        </g>
                        <g transform="matrix(0.92749,-0.373849,0.373849,0.92749,-717.126,731.485)">
                            <text x="1527.13px" y="2214.42px" style="font-family:'ArialMT', 'Arial', sans-serif;font-size:150px;fill:white;">V</text>
                        </g>
                        <g transform="matrix(0.853919,-0.520406,0.520406,0.853919,-869.269,1191.24)">
                            <text x="1687.22px" y="2143.98px" style="font-family:'ArialMT', 'Arial', sans-serif;font-size:150px;fill:white;">O</text>
                        </g>
                        <g transform="matrix(0.761635,-0.648006,0.648006,0.761635,-880.568,1682.81)">
                            <text x="1847.12px" y="2038.34px" style="font-family:'ArialMT', 'Arial', sans-serif;font-size:150px;fill:white;">L</text>
                        </g>
                        <g transform="matrix(0.657323,-0.753609,0.753609,0.657323,-782.847,2142.92)">
                            <text x="1964.91px" y="1932.27px" style="font-family:'ArialMT', 'Arial', sans-serif;font-size:150px;fill:white;">U</text>
                        </g>
                        <g transform="matrix(0.532569,-0.846387,0.846387,0.532569,-542.473,2597.56)">
                            <text x="2080.49px" y="1789.91px" style="font-family:'ArialMT', 'Arial', sans-serif;font-size:150px;fill:white;">T</text>
                        </g>
                        <g transform="matrix(0.421565,-0.906798,0.906798,0.421565,-240.654,2914.07)">
                            <text x="2163.83px" y="1645.67px" style="font-family:'ArialMT', 'Arial', sans-serif;font-size:150px;fill:white;">I</text>
                        </g>
                        <g transform="matrix(0.292613,-0.956231,0.956231,0.292613,92.3111,3202.48)">
                            <text x="2210.68px" y="1538.85px" style="font-family:'ArialMT', 'Arial', sans-serif;font-size:150px;fill:white;">O</text>
                        </g>
                        <g transform="matrix(0.128992,-0.991646,0.991646,0.128992,626.538,3420.47)">
                            <text x="2260.38px" y="1353.58px" style="font-family:'ArialMT', 'Arial', sans-serif;font-size:150px;fill:white;">N</text>
                        </g>
                        <g transform="matrix(-0.00713526,-0.999975,0.999975,-0.00713526,1122.01,3456.33)">
                            <text x="2276.88px" y="1171.15px" style="font-family:'Arial-BoldMT', 'Arial', sans-serif;font-weight:700;font-size:150px;fill:white;">·</text>
                        </g>
                    </g>
                </g>
                <g transform="matrix(2.43518,0,0,2.43518,5269.33,313.944)">
                    <g transform="matrix(1,0,0,1,-141.975,-38.007)">
                        <g transform="matrix(351.319,0,0,351.319,331.551,430.363)">
                        </g>
                        <text x="152.027px" y="430.363px" style="font-family:'HarmonyOS_Sans_SC_Medium', 'HarmonyOS Sans SC';font-weight:500;font-size:351.319px;fill:white;">x</text>
                    </g>
                    <g transform="matrix(1,0,0,1,233.89,-35.8991)">
                        <g transform="matrix(351.319,0,0,351.319,358.602,430.363)">
                        </g>
                        <text x="152.027px" y="430.363px" style="font-family:'HarmonyOS_Sans_SC_Medium', 'HarmonyOS Sans SC';font-weight:500;font-size:351.319px;fill:white;">n</text>
                    </g>
                    <g transform="matrix(0.640524,-0.640524,0.640524,0.640524,-23.5345,231.934)">
                        <g transform="matrix(351.319,0,0,351.319,239.856,430.363)">
                        </g>
                        <text x="152.027px" y="430.363px" style="font-family:'HarmonyOS_Sans_SC_Medium', 'HarmonyOS Sans SC';font-weight:500;font-size:351.319px;fill:white;">i</text>
                    </g>
                    <g transform="matrix(0.961307,0,0,1.18774,52.4809,11.1677)">
                        <path d="M350.423,433.517L160.105,433.517L160.105,462.315L335.915,462.315C339.763,462.315 343.453,461.078 346.173,458.876C348.894,456.674 350.423,453.687 350.423,450.573L350.423,433.517Z" style="fill:white;"/>
                    </g>
                </g>
            </g>
        </g>
    </g>
</svg>
